HIERARCHY
ROOT Hips
{
	OFFSET -3.958830 18.904000 13.208200
	CHANNELS 6 Xposition Yposition Zposition Zrotation Yrotation Xrotation 
	JOINT LHipJoint
	{
		OFFSET 0.000000 0.000000 0.000000
		CHANNELS 3 Zrotation Yrotation Xrotation
		JOINT LeftUpLeg
		{
			OFFSET 1.800000 -1.400000 0.085000
			CHANNELS 3 Zrotation Yrotation Xrotation
			JOINT LeftLeg
			{
				OFFSET 2.215000 -6.000000 0.000000
				CHANNELS 3 Zrotation Yrotation Xrotation
				JOINT LeftFoot
				{
					OFFSET 2.500000 -6.900000 0.000000
					CHANNELS 3 Zrotation Yrotation Xrotation
					JOINT LeftToeBase
					{
						OFFSET 0.200000 -0.500000 1.950000
						CHANNELS 3 Zrotation Yrotation Xrotation
						End Site
						{
							OFFSET 0.000000 0.000000 0.000000
						}
					}
				}
			}
		}
	}
	JOINT RHipJoint
	{
		OFFSET 0.000000 0.000000 0.000000
		CHANNELS 3 Zrotation Yrotation Xrotation
		JOINT RightUpLeg
		{
			OFFSET -1.800000 -1.400000 0.085000
			CHANNELS 3 Zrotation Yrotation Xrotation
			JOINT RightLeg
			{
				OFFSET -2.215000 -6.000000 0.000000
				CHANNELS 3 Zrotation Yrotation Xrotation
				JOINT RightFoot
				{
					OFFSET -2.500000 -6.900000 0.000000
					CHANNELS 3 Zrotation Yrotation Xrotation
					JOINT RightToeBase
					{
						OFFSET -0.200000 -0.500000 1.950000
						CHANNELS 3 Zrotation Yrotation Xrotation
						End Site
						{
							OFFSET 0.000000 0.000000 0.000000
						}
					}
				}
			}
		}
	}
	JOINT LowerBack
	{
		OFFSET 0.000000 0.000000 0.000000
		CHANNELS 3 Zrotation Yrotation Xrotation
		JOINT Spine
		{
			OFFSET -0.087000 1.940000 -0.288900
			CHANNELS 3 Zrotation Yrotation Xrotation
			JOINT Spine1
			{
				OFFSET 0.000000 1.950000 0.060000
				CHANNELS 3 Zrotation Yrotation Xrotation
				JOINT Neck
				{
					OFFSET 0.000000 0.000000 0.000000
					CHANNELS 3 Zrotation Yrotation Xrotation
					JOINT Neck1
					{
						OFFSET 0.000000 1.600000 0.340000
						CHANNELS 3 Zrotation Yrotation Xrotation
						JOINT Head
						{
							OFFSET 0.000000 1.667000 -0.240000
							CHANNELS 3 Zrotation Yrotation Xrotation
							End Site
							{
								OFFSET 0.000000 0.000000 0.000000
							}
						}
					}
				}
				JOINT LeftShoulder
				{
					OFFSET 0.000000 0.000000 0.000000
					CHANNELS 3 Zrotation Yrotation Xrotation
					JOINT LeftArm
					{
						OFFSET 2.700000 1.550000 -0.730000
						CHANNELS 3 Zrotation Yrotation Xrotation
						JOINT LeftForeArm
						{
							OFFSET 5.450000 0.000000 0.000000
							CHANNELS 3 Zrotation Yrotation Xrotation
							JOINT LeftHand
							{
								OFFSET 3.450000 0.000000 0.000000
								CHANNELS 3 Zrotation Yrotation Xrotation
								JOINT LeftHandIndex1
								{
									OFFSET 0.750000 0.000000 0.000000
									CHANNELS 3 Zrotation Yrotation Xrotation
									End Site
									{
										OFFSET 0.000000 0.000000 0.000000
									}
								}
							}
						}
					}
				}
				JOINT RightShoulder
				{
					OFFSET 0.000000 0.000000 0.000000
					CHANNELS 3 Zrotation Yrotation Xrotation
					JOINT RightArm
					{
						OFFSET -2.700000 1.550000 -0.730000
						CHANNELS 3 Zrotation Yrotation Xrotation
						JOINT RightForeArm
						{
							OFFSET -5.450000 0.000000 0.000000
							CHANNELS 3 Zrotation Yrotation Xrotation
							JOINT RightHand
							{
								OFFSET -3.450000 0.000000 0.000000
								CHANNELS 3 Zrotation Yrotation Xrotation
								JOINT RightHandIndex1
								{
									OFFSET -0.750000 0.000000 0.000000
									CHANNELS 3 Zrotation Yrotation Xrotation
									End Site
									{
										OFFSET 0.000000 0.000000 0.000000
									}
								}
							}
						}
					}
				}
			}
		}
	}
}
MOTION
Frames: 6
Frame Time: 0.016667
-0.113720 17.563690 -0.160690 -7.199622 -8.899116 -10.129146 -15.511362 14.023202 3.120243 30.962440 0.194591 -15.237319 -1.671187 11.677406 35.430148 0.239868 8.239475 1.570729 0.131980 0.130250 -0.106710 17.968790 -10.964498 1.588497 -9.637671 1.191191 -16.118224 -6.951585 -5.801691 50.225950 -0.649049 -7.408222 1.745373 0.268150 0.431940 0.068020 -2.513301 -3.106363 -7.345619 0.628623 1.201226 15.594449 0.392360 3.221881 11.623393 2.401873 -9.193166 -10.074462 -17.466309 -0.168086 24.937914 -2.177180 -5.006170 -4.435400 -3.494590 -5.976106 5.969458 -23.290371 -14.786484 1.958330 95.046247 -65.088495 -67.199720 -3.635422 1.361370 -0.079250 0.266870 -0.255760 0.168680 -0.895766 15.790621 3.231685 -19.741706 0.621568 -12.818798 -107.959741 -3.366223 0.041580 2.485310 -2.417368 -0.172560 0.282820 0.095190 0.078060 
-0.112320 17.557690 -0.162360 -7.138900 -8.619206 -10.642956 -15.524532 14.031703 3.100894 31.044051 0.313201 -14.726431 -1.795177 11.751038 35.310032 0.245266 8.257311 1.563665 0.151110 0.159040 -0.094390 17.953590 -11.003468 1.551832 -9.647445 1.126910 -15.365368 -7.267539 -5.536323 49.930893 -0.650344 -7.380777 1.755092 0.286490 0.424190 0.077820 -2.474666 -3.056573 -7.297420 0.005693 1.630184 15.764805 0.419574 3.730476 12.647445 2.581046 -8.921306 -10.296103 -16.745113 -0.386534 24.725121 -2.504490 -4.797010 -4.725180 -4.100023 -7.935229 6.271962 -20.379124 -16.533113 2.505213 99.888576 -61.935865 -70.348397 -3.780580 1.691776 -0.089230 0.274230 -0.250240 0.171000 -0.625435 17.768001 3.565263 -21.546631 1.984617 -13.399657 -108.477187 -4.419667 1.156192 2.478653 -2.420089 -0.161960 0.274980 0.085490 0.077340 
-0.085700 17.550550 -0.181480 -7.066927 -6.982564 -11.943615 -15.479595 14.105023 3.015906 30.530315 0.285733 -14.097889 -1.147429 11.301960 35.206854 0.244261 8.110562 1.627470 0.154900 0.182770 -0.106650 17.956085 -11.191853 1.513127 -10.074182 0.729490 -13.952287 -7.805658 -5.309321 49.695491 -0.660716 -7.388714 1.774632 0.295460 0.427920 0.066370 -2.556949 -2.898851 -7.246503 0.222160 1.851960 16.876116 -1.351533 4.718824 14.117676 2.845569 -8.736612 -10.690418 -16.471470 -1.132945 25.233888 -2.288190 -5.426060 -4.804450 -5.078475 -12.132999 6.105535 -14.211569 -21.523199 2.526900 104.193206 -57.690300 -70.961152 -3.884634 2.011786 -0.100970 0.274200 -0.245760 0.183720 -0.307562 21.778843 4.674423 -24.042026 2.543978 -14.476648 -108.911412 -6.698092 3.825430 2.528697 -2.403512 -0.155170 0.290690 0.074830 0.092250 
-0.055320 17.552640 -0.189380 -6.921602 -4.173723 -13.192462 -15.431833 14.158769 2.938058 29.509227 0.114620 -14.348775 -0.313022 10.713463 35.442760 0.211453 7.942798 1.680250 0.172530 0.207310 -0.114620 17.963443 -11.386672 1.469142 -10.842430 0.201049 -12.580684 -8.042054 -5.454996 49.881888 -0.694252 -7.506593 1.734126 0.308860 0.431720 0.081600 -2.675965 -2.747235 -7.187926 0.714581 1.792625 17.532265 -3.198370 5.550916 16.079526 2.875818 -8.265033 -11.036471 -15.723747 -2.210953 25.772908 -1.634060 -6.552070 -5.034770 -4.704524 -17.090432 5.509244 -10.140967 -28.889038 2.343141 103.061976 -55.093241 -66.399107 -3.906978 2.109778 -0.110440 0.275690 -0.242420 0.192450 -0.952366 25.942302 6.132390 -24.435415 3.346348 -15.648521 -109.074446 -6.586059 2.919336 2.567960 -2.419464 -0.137200 0.288010 0.075530 0.105650 
-0.027030 17.560590 -0.195470 -6.744682 -1.622643 -14.536748 -15.461737 14.240996 2.862258 28.496049 0.140846 -14.613080 0.330542 10.396397 36.052673 0.148262 7.915409 1.685207 0.195250 0.245250 -0.120350 17.922791 -11.434989 1.421900 -11.557810 -0.011169 -11.181107 -7.860213 -5.833843 50.838127 -0.753580 -7.735012 1.652501 0.356020 0.456310 0.073320 -2.620116 -2.851555 -7.096380 -0.225655 1.619984 17.269424 -3.401068 6.067690 19.334840 2.581934 -7.481002 -11.390858 -14.421203 -3.062101 26.390479 -0.385390 -7.672310 -6.319140 -2.686311 -22.015223 5.179717 -11.624524 -35.917885 2.881352 102.210518 -51.882484 -63.333044 -3.971163 2.189337 -0.100050 0.277330 -0.246430 0.198170 -2.501163 30.023108 7.566720 -22.126552 6.931617 -17.034624 -106.255462 -5.252691 -0.492067 2.568022 -2.403734 -0.156680 0.339750 0.091310 0.110480 
0.017040 17.565690 -0.181430 -6.930338 0.834293 -15.178034 -15.474844 14.343988 2.780741 27.821363 0.533378 -15.485006 2.071488 9.681661 36.443930 0.071745 7.772145 1.713833 0.221640 0.269760 -0.100670 17.899463 -11.505785 1.385094 -12.164376 0.149746 -10.291610 -8.801327 -5.292540 51.141642 -0.774250 -7.785874 1.623301 0.386710 0.452220 0.077780 -2.617873 -2.893386 -7.038211 0.133783 1.024295 16.286247 -3.905872 6.307113 21.815574 2.600744 -6.966023 -11.630371 -14.075689 -3.346842 27.968853 -0.198070 -8.189350 -6.891320 -0.950140 -25.781384 5.044540 -17.990993 -42.348176 6.116464 102.247573 -50.142418 -63.338056 -4.027859 2.191018 -0.084330 0.274220 -0.240670 0.191760 -4.327091 33.025425 8.403598 -18.892355 11.625564 -17.166358 -99.845195 -0.966666 -6.355095 2.524452 -2.343448 -0.163420 0.358420 0.100220 0.100330 
